<svg width="1366" height="239" viewBox="0 0 1366 239" fill="none" xmlns="http://www.w3.org/2000/svg">
<g clip-path="url(#clip0_124_2)">
<rect width="1365.71" height="239" fill="white"/>
<rect width="1366" height="239" fill="#0D1117"/>
<g filter="url(#filter0_f_124_2)">
<path d="M1166.04 69.579H1113.72C1107.66 69.579 1102.75 74.4871 1102.75 80.5415V157.611C1102.75 163.665 1107.66 168.574 1113.72 168.574H1166.04C1172.09 168.574 1177 163.665 1177 157.611V80.5415C1177 74.4871 1172.09 69.579 1166.04 69.579Z" fill="url(#paint0_linear_124_2)"/>
<path d="M1066.16 69.579H1013.84C1007.78 69.579 1002.88 74.4871 1002.88 80.5415V157.611C1002.88 163.665 1007.78 168.574 1013.84 168.574H1066.16C1072.21 168.574 1077.12 163.665 1077.12 157.611V80.5415C1077.12 74.4871 1072.21 69.579 1066.16 69.579Z" fill="url(#paint1_linear_124_2)"/>
</g>
<path d="M1166.04 69.579H1113.72C1107.66 69.579 1102.75 74.4871 1102.75 80.5415V157.611C1102.75 163.665 1107.66 168.574 1113.72 168.574H1166.04C1172.09 168.574 1177 163.665 1177 157.611V80.5415C1177 74.4871 1172.09 69.579 1166.04 69.579Z" fill="url(#paint2_linear_124_2)"/>
<path d="M1066.16 69.579H1013.84C1007.78 69.579 1002.88 74.4871 1002.88 80.5415V157.611C1002.88 163.665 1007.78 168.574 1013.84 168.574H1066.16C1072.21 168.574 1077.12 163.665 1077.12 157.611V80.5415C1077.12 74.4871 1072.21 69.579 1066.16 69.579Z" fill="url(#paint3_linear_124_2)"/>
<g filter="url(#filter1_b_124_2)">
<path d="M1129.8 51.9014H1050.96C1044.91 51.9014 1040 56.8095 1040 62.8639V175.276C1040 181.331 1044.91 186.239 1050.96 186.239H1129.8C1135.85 186.239 1140.76 181.331 1140.76 175.276V62.8639C1140.76 56.8095 1135.85 51.9014 1129.8 51.9014Z" fill="url(#paint4_linear_124_2)"/>
<path d="M1050.96 52.6514H1129.8C1135.44 52.6514 1140.01 57.2237 1140.01 62.8639V175.276C1140.01 180.917 1135.44 185.489 1129.8 185.489H1050.96C1045.32 185.489 1040.75 180.917 1040.75 175.276V62.8639C1040.75 57.2237 1045.32 52.6514 1050.96 52.6514Z" stroke="url(#paint5_linear_124_2)" stroke-width="1.5"/>
</g>
<path d="M1104.88 115.086L1081.82 101.779C1078.75 100.011 1074.92 102.221 1074.92 105.769V132.384C1074.92 135.931 1078.75 138.141 1081.82 136.373L1104.88 123.066C1107.95 121.298 1107.95 116.867 1104.88 115.099V115.086Z" fill="white"/>
<path d="M171.664 76.625H176.664L196.039 98.8906L215.336 76.625H220.336V131H212.523V89.5938L210.219 92.7188L196.039 109.242L181.859 92.7578L179.477 89.6328V131H171.664V76.625ZM231.838 110.766C231.838 104.438 233.856 99.3073 237.892 95.375C241.668 91.7031 246.343 89.8672 251.916 89.8672C257.384 89.8672 261.955 91.7031 265.627 95.375C269.533 99.2812 271.486 104.411 271.486 110.766C271.486 117.094 269.52 122.198 265.588 126.078C261.864 129.776 257.293 131.625 251.877 131.625C246.382 131.625 241.72 129.776 237.892 126.078C233.856 122.198 231.838 117.094 231.838 110.766ZM239.963 110.766C239.963 117.432 242.098 121.964 246.369 124.359C247.879 125.193 249.689 125.609 251.798 125.609C253.908 125.609 255.692 125.193 257.15 124.359C258.608 123.5 259.806 122.38 260.744 121C262.489 118.344 263.361 114.932 263.361 110.766C263.361 104.151 261.265 99.6198 257.072 97.1719C255.614 96.3125 253.869 95.8828 251.838 95.8828C249.806 95.8828 248.035 96.3125 246.525 97.1719C245.041 98.0052 243.817 99.112 242.853 100.492C240.926 103.201 239.963 106.625 239.963 110.766ZM277.988 90.6875H286.386L297.363 123.383L308.378 90.6875H316.738L301.308 131H293.456L277.988 90.6875ZM334.919 78.9688C334.919 80.4531 334.424 81.599 333.434 82.4062C332.471 83.1875 331.26 83.5781 329.802 83.5781C328.343 83.5781 327.132 83.1875 326.169 82.4062C325.231 81.599 324.762 80.4531 324.762 78.9688C324.762 77.4583 325.231 76.3125 326.169 75.5312C327.132 74.75 328.343 74.3594 329.802 74.3594C331.26 74.3594 332.471 74.75 333.434 75.5312C334.424 76.3125 334.919 77.4583 334.919 78.9688ZM325.778 90.6875H333.591V131H325.778V90.6875ZM367.123 131.625C352.384 131.625 345.014 124.424 345.014 110.023C345.014 103.826 347.058 98.8646 351.147 95.1406C354.819 91.7552 359.011 90.0625 363.725 90.0625C368.855 90.0625 372.866 91.7812 375.756 95.2188C378.439 98.4219 379.78 102.706 379.78 108.07V111.117H353.139C353.139 118.487 356.147 122.992 362.163 124.633C363.595 125.023 365.795 125.219 368.764 125.219C371.759 125.219 374.689 124.815 377.553 124.008V130.609C374.689 131.286 371.212 131.625 367.123 131.625ZM371.967 105.375C371.967 102.875 371.277 100.766 369.897 99.0469C368.282 97.0677 366.056 96.0781 363.217 96.0781C360.222 96.0781 357.788 97.0286 355.913 98.9297C354.194 100.701 353.334 102.849 353.334 105.375H371.967ZM427.688 130.688C425.109 131.156 421.633 131.391 417.258 131.391C412.909 131.391 408.977 130.792 405.461 129.594C401.971 128.396 398.964 126.625 396.438 124.281C391.021 119.255 388.312 112.25 388.312 103.266C388.312 97.4062 389.706 92.3281 392.492 88.0312C396.268 82.224 402.062 78.526 409.875 76.9375C412.271 76.4688 415.122 76.2344 418.43 76.2344C421.763 76.2344 424.432 76.4167 426.438 76.7812V84.2422C424.615 83.6693 421.789 83.3828 417.961 83.3828C414.159 83.3828 410.93 83.8516 408.273 84.7891C405.617 85.7266 403.417 87.0677 401.672 88.8125C398.182 92.224 396.438 97.0417 396.438 103.266C396.438 109.542 398.156 114.516 401.594 118.188C405.318 122.146 410.669 124.125 417.648 124.125C421.737 124.125 425.083 123.812 427.688 123.188V130.688ZM437.275 110.766C437.275 104.438 439.293 99.3073 443.33 95.375C447.106 91.7031 451.78 89.8672 457.353 89.8672C462.822 89.8672 467.392 91.7031 471.064 95.375C474.97 99.2812 476.923 104.411 476.923 110.766C476.923 117.094 474.957 122.198 471.025 126.078C467.301 129.776 462.731 131.625 457.314 131.625C451.819 131.625 447.158 129.776 443.33 126.078C439.293 122.198 437.275 117.094 437.275 110.766ZM445.4 110.766C445.4 117.432 447.535 121.964 451.806 124.359C453.317 125.193 455.127 125.609 457.236 125.609C459.345 125.609 461.129 125.193 462.587 124.359C464.046 123.5 465.244 122.38 466.181 121C467.926 118.344 468.798 114.932 468.798 110.766C468.798 104.151 466.702 99.6198 462.509 97.1719C461.051 96.3125 459.306 95.8828 457.275 95.8828C455.244 95.8828 453.473 96.3125 451.962 97.1719C450.478 98.0052 449.254 99.112 448.291 100.492C446.364 103.201 445.4 106.625 445.4 110.766ZM507.097 96.7812C503.217 96.7812 499.766 98.0964 496.745 100.727V131H488.933V90.6875H496.159L496.706 95.0625C500.951 91.7292 505.339 90.0625 509.87 90.0625C514.662 90.0625 518.178 91.4948 520.417 94.3594C522.761 97.3802 523.933 102.25 523.933 108.969V131H516.12V108.969C516.12 102.51 514.376 98.6562 510.886 97.4062C509.766 96.9896 508.503 96.7812 507.097 96.7812Z" fill="#EADAA3"/>
<path d="M558.506 159.432L558.516 167H556.562V156.922H558.359L558.496 158.025C559.212 157.426 560.046 157.036 560.996 156.854C561.302 156.795 561.602 156.766 561.895 156.766C563.112 156.766 564.03 157.28 564.648 158.309C565.781 157.28 566.966 156.766 568.203 156.766C569.427 156.766 570.319 157.133 570.879 157.869C571.439 158.618 571.719 159.855 571.719 161.58V167H569.766V161.648C569.766 159.956 569.359 158.943 568.545 158.611C568.271 158.501 567.952 158.445 567.588 158.445C566.715 158.445 565.915 158.758 565.186 159.383V167H563.232V161.57C563.232 160.411 563.06 159.598 562.715 159.129C562.383 158.673 561.787 158.445 560.928 158.445C560.075 158.445 559.268 158.774 558.506 159.432ZM574.399 161.941C574.399 160.359 574.904 159.077 575.913 158.094C576.857 157.176 578.026 156.717 579.419 156.717C580.786 156.717 581.929 157.176 582.846 158.094C583.823 159.07 584.311 160.353 584.311 161.941C584.311 163.523 583.82 164.799 582.837 165.77C581.906 166.694 580.763 167.156 579.409 167.156C578.035 167.156 576.87 166.694 575.913 165.77C574.904 164.799 574.399 163.523 574.399 161.941ZM576.43 161.941C576.43 163.608 576.964 164.741 578.032 165.34C578.41 165.548 578.862 165.652 579.389 165.652C579.917 165.652 580.363 165.548 580.727 165.34C581.092 165.125 581.391 164.845 581.626 164.5C582.062 163.836 582.28 162.983 582.28 161.941C582.28 160.288 581.756 159.155 580.708 158.543C580.343 158.328 579.907 158.221 579.399 158.221C578.891 158.221 578.449 158.328 578.071 158.543C577.7 158.751 577.394 159.028 577.153 159.373C576.671 160.05 576.43 160.906 576.43 161.941ZM585.537 156.922H587.636L590.38 165.096L593.134 156.922H595.224L591.367 167H589.404L585.537 156.922ZM599.37 153.992C599.37 154.363 599.246 154.65 598.998 154.852C598.758 155.047 598.455 155.145 598.09 155.145C597.726 155.145 597.423 155.047 597.182 154.852C596.948 154.65 596.83 154.363 596.83 153.992C596.83 153.615 596.948 153.328 597.182 153.133C597.423 152.938 597.726 152.84 598.09 152.84C598.455 152.84 598.758 152.938 598.998 153.133C599.246 153.328 599.37 153.615 599.37 153.992ZM597.084 156.922H599.037V167H597.084V156.922ZM607.021 167.156C603.336 167.156 601.493 165.356 601.493 161.756C601.493 160.206 602.004 158.966 603.027 158.035C603.945 157.189 604.993 156.766 606.171 156.766C607.454 156.766 608.456 157.195 609.179 158.055C609.849 158.855 610.185 159.926 610.185 161.268V162.029H603.525C603.525 163.872 604.277 164.998 605.78 165.408C606.139 165.506 606.689 165.555 607.431 165.555C608.18 165.555 608.912 165.454 609.628 165.252V166.902C608.912 167.072 608.043 167.156 607.021 167.156ZM608.232 160.594C608.232 159.969 608.059 159.441 607.714 159.012C607.31 158.517 606.754 158.27 606.044 158.27C605.295 158.27 604.687 158.507 604.218 158.982C603.788 159.425 603.573 159.962 603.573 160.594H608.232ZM621.864 167.156C621.05 167.156 620.227 167.098 619.393 166.98V165.252C620.24 165.454 621.099 165.555 621.971 165.555C623.716 165.555 624.589 165.187 624.589 164.451C624.589 164.171 624.52 163.963 624.384 163.826C624.182 163.611 623.863 163.396 623.427 163.182L622.001 162.527C621.076 162.065 620.477 161.694 620.204 161.414C619.69 160.893 619.432 160.275 619.432 159.559C619.432 158.751 619.807 158.094 620.555 157.586C621.363 157.039 622.496 156.766 623.954 156.766C624.69 156.766 625.432 156.818 626.18 156.922V158.592C625.36 158.442 624.644 158.367 624.032 158.367C623.427 158.367 622.955 158.406 622.616 158.484C622.284 158.562 622.033 158.66 621.864 158.777C621.597 158.96 621.464 159.197 621.464 159.49C621.464 159.777 621.555 160.011 621.737 160.193C621.926 160.369 622.219 160.561 622.616 160.77L624.052 161.463C624.989 161.951 625.591 162.326 625.858 162.586C626.366 163.081 626.62 163.702 626.62 164.451C626.62 165.252 626.216 165.896 625.409 166.385C624.563 166.899 623.381 167.156 621.864 167.156ZM633.216 165.457C633.431 165.535 633.757 165.574 634.193 165.574C634.629 165.574 634.994 165.522 635.287 165.418V166.98C635.15 167.013 634.951 167.033 634.691 167.039L634.076 167.059C633.939 167.059 633.835 167.059 633.763 167.059C632.507 167.059 631.579 166.648 630.98 165.828C630.498 165.164 630.257 164.285 630.257 163.191V158.416H628.812V157.498L630.257 156.922L630.726 154.422H632.211V156.922H635.336V158.416H632.211V163.182C632.211 164.458 632.546 165.216 633.216 165.457ZM637.479 161.941C637.479 160.359 637.983 159.077 638.993 158.094C639.937 157.176 641.105 156.717 642.498 156.717C643.866 156.717 645.008 157.176 645.926 158.094C646.903 159.07 647.391 160.353 647.391 161.941C647.391 163.523 646.899 164.799 645.916 165.77C644.985 166.694 643.843 167.156 642.489 167.156C641.115 167.156 639.95 166.694 638.993 165.77C637.983 164.799 637.479 163.523 637.479 161.941ZM639.51 161.941C639.51 163.608 640.044 164.741 641.112 165.34C641.489 165.548 641.942 165.652 642.469 165.652C642.996 165.652 643.442 165.548 643.807 165.34C644.172 165.125 644.471 164.845 644.705 164.5C645.142 163.836 645.36 162.983 645.36 161.941C645.36 160.288 644.836 159.155 643.787 158.543C643.423 158.328 642.987 158.221 642.479 158.221C641.971 158.221 641.528 158.328 641.151 158.543C640.78 158.751 640.474 159.028 640.233 159.373C639.751 160.05 639.51 160.906 639.51 161.941ZM656.4 158.709C656.042 158.605 655.612 158.553 655.111 158.553C654.616 158.553 654.209 158.605 653.89 158.709C653.571 158.807 653.291 158.927 653.05 159.07C652.607 159.331 652.285 159.624 652.083 159.949V167H650.13V156.922H652.005L652.083 158.318C652.571 157.706 653.284 157.247 654.222 156.941C654.56 156.824 654.948 156.766 655.384 156.766C655.82 156.766 656.159 156.798 656.4 156.863V158.709ZM658.982 165.203C658.768 164.832 658.595 164.396 658.465 163.895C658.341 163.393 658.279 162.739 658.279 161.932C658.279 161.124 658.452 160.382 658.797 159.705C659.148 159.021 659.604 158.462 660.164 158.025C661.251 157.186 662.602 156.766 664.217 156.766C665.057 156.766 665.691 156.785 666.121 156.824C666.121 156.824 666.437 156.857 667.068 156.922V167H665.311L665.232 165.838C664.842 166.359 664.246 166.746 663.445 167C663.139 167.098 662.824 167.146 662.498 167.146C662.179 167.146 661.863 167.114 661.551 167.049C661.238 166.984 660.926 166.876 660.613 166.727C660.307 166.577 660.014 166.378 659.734 166.131C659.454 165.877 659.204 165.568 658.982 165.203ZM665.115 158.357C664.699 158.305 664.282 158.279 663.865 158.279C663.455 158.279 663.016 158.354 662.547 158.504C662.078 158.647 661.678 158.875 661.346 159.188C660.656 159.839 660.311 160.831 660.311 162.166C660.311 163.429 660.607 164.363 661.199 164.969C661.648 165.418 662.189 165.643 662.82 165.643C663.634 165.643 664.305 165.346 664.832 164.754C664.962 164.604 665.057 164.471 665.115 164.354V158.357ZM676.126 170.848C675.559 170.991 674.83 171.062 673.938 171.062C673.053 171.062 672.405 170.997 671.995 170.867V169.129C672.509 169.35 673.137 169.461 673.88 169.461C674.628 169.467 675.179 169.419 675.53 169.314C675.882 169.21 676.158 169.041 676.36 168.807C676.725 168.383 676.907 167.618 676.907 166.512V165.994C676.412 166.489 675.761 166.834 674.954 167.029C674.628 167.107 674.303 167.146 673.977 167.146C673.652 167.146 673.333 167.111 673.02 167.039C672.714 166.967 672.408 166.854 672.102 166.697C671.796 166.535 671.503 166.326 671.223 166.072C670.943 165.812 670.696 165.49 670.481 165.105C669.999 164.272 669.759 163.247 669.759 162.029C669.746 160.903 670.071 159.913 670.735 159.061C671.308 158.318 672.096 157.742 673.098 157.332C674.01 156.954 674.996 156.766 676.057 156.766C677.119 156.766 678.053 156.818 678.86 156.922V166.512C678.86 168.947 677.949 170.392 676.126 170.848ZM676.907 158.348C676.49 158.296 676.08 158.27 675.677 158.27C675.273 158.27 674.82 158.344 674.319 158.494C673.818 158.644 673.378 158.872 673.001 159.178C672.174 159.848 671.761 160.799 671.761 162.029C671.761 163.364 672.083 164.337 672.727 164.949C673.209 165.411 673.798 165.643 674.495 165.643C675.335 165.643 676.041 165.346 676.614 164.754C676.751 164.604 676.848 164.471 676.907 164.354V158.348ZM686.961 167.156C683.276 167.156 681.433 165.356 681.433 161.756C681.433 160.206 681.944 158.966 682.966 158.035C683.884 157.189 684.933 156.766 686.111 156.766C687.393 156.766 688.396 157.195 689.119 158.055C689.789 158.855 690.125 159.926 690.125 161.268V162.029H683.464C683.464 163.872 684.216 164.998 685.72 165.408C686.078 165.506 686.629 165.555 687.371 165.555C688.119 165.555 688.852 165.454 689.568 165.252V166.902C688.852 167.072 687.983 167.156 686.961 167.156ZM688.171 160.594C688.171 159.969 687.999 159.441 687.654 159.012C687.25 158.517 686.694 158.27 685.984 158.27C685.235 158.27 684.627 158.507 684.158 158.982C683.728 159.425 683.513 159.962 683.513 160.594H688.171ZM699.782 165.203C699.568 164.832 699.395 164.396 699.265 163.895C699.141 163.393 699.079 162.739 699.079 161.932C699.079 161.124 699.252 160.382 699.597 159.705C699.948 159.021 700.404 158.462 700.964 158.025C702.051 157.186 703.402 156.766 705.017 156.766C705.857 156.766 706.491 156.785 706.921 156.824C706.921 156.824 707.237 156.857 707.868 156.922V167H706.111L706.032 165.838C705.642 166.359 705.046 166.746 704.245 167C703.939 167.098 703.624 167.146 703.298 167.146C702.979 167.146 702.663 167.114 702.351 167.049C702.038 166.984 701.726 166.876 701.413 166.727C701.107 166.577 700.814 166.378 700.534 166.131C700.254 165.877 700.004 165.568 699.782 165.203ZM705.915 158.357C705.499 158.305 705.082 158.279 704.665 158.279C704.255 158.279 703.816 158.354 703.347 158.504C702.878 158.647 702.478 158.875 702.146 159.188C701.456 159.839 701.111 160.831 701.111 162.166C701.111 163.429 701.407 164.363 701.999 164.969C702.448 165.418 702.989 165.643 703.62 165.643C704.434 165.643 705.105 165.346 705.632 164.754C705.762 164.604 705.857 164.471 705.915 164.354V158.357ZM713.293 170.906H711.34V156.922H713.098L713.176 158.074C713.566 157.553 714.165 157.166 714.973 156.912C715.285 156.814 715.601 156.766 715.92 156.766C716.245 156.766 716.564 156.801 716.877 156.873C717.189 156.938 717.499 157.049 717.805 157.205C718.111 157.355 718.404 157.557 718.684 157.811C718.964 158.058 719.211 158.367 719.426 158.738C719.895 159.539 720.129 160.532 720.129 161.717C720.129 163.527 719.504 164.91 718.254 165.867C717.147 166.72 715.799 167.146 714.211 167.146H713.723C713.566 167.146 713.423 167.143 713.293 167.137V170.906ZM713.293 165.555C713.475 165.607 713.833 165.633 714.367 165.633C714.901 165.633 715.402 165.558 715.871 165.408C716.34 165.258 716.737 165.027 717.062 164.715C717.753 164.051 718.098 163.051 718.098 161.717C718.098 160.46 717.798 159.533 717.199 158.934C716.757 158.491 716.216 158.27 715.578 158.27C714.777 158.27 714.113 158.566 713.586 159.158C713.449 159.308 713.352 159.441 713.293 159.559V165.555ZM725.173 170.906H723.22V156.922H724.977L725.055 158.074C725.446 157.553 726.045 157.166 726.852 156.912C727.165 156.814 727.481 156.766 727.8 156.766C728.125 156.766 728.444 156.801 728.757 156.873C729.069 156.938 729.378 157.049 729.684 157.205C729.99 157.355 730.283 157.557 730.563 157.811C730.843 158.058 731.091 158.367 731.305 158.738C731.774 159.539 732.009 160.532 732.009 161.717C732.009 163.527 731.384 164.91 730.134 165.867C729.027 166.72 727.679 167.146 726.091 167.146H725.602C725.446 167.146 725.303 167.143 725.173 167.137V170.906ZM725.173 165.555C725.355 165.607 725.713 165.633 726.247 165.633C726.781 165.633 727.282 165.558 727.751 165.408C728.22 165.258 728.617 165.027 728.942 164.715C729.632 164.051 729.977 163.051 729.977 161.717C729.977 160.46 729.678 159.533 729.079 158.934C728.636 158.491 728.096 158.27 727.458 158.27C726.657 158.27 725.993 158.566 725.466 159.158C725.329 159.308 725.231 159.441 725.173 159.559V165.555Z" fill="#EADAA3"/>
</g>
<defs>
<filter id="filter0_f_124_2" x="909.876" y="-23.421" width="360.125" height="284.995" filterUnits="userSpaceOnUse" color-interpolation-filters="sRGB">
<feFlood flood-opacity="0" result="BackgroundImageFix"/>
<feBlend mode="normal" in="SourceGraphic" in2="BackgroundImageFix" result="shape"/>
<feGaussianBlur stdDeviation="46.5" result="effect1_foregroundBlur_124_2"/>
</filter>
<filter id="filter1_b_124_2" x="1022" y="33.9014" width="136.762" height="170.337" filterUnits="userSpaceOnUse" color-interpolation-filters="sRGB">
<feFlood flood-opacity="0" result="BackgroundImageFix"/>
<feGaussianBlur in="BackgroundImageFix" stdDeviation="9"/>
<feComposite in2="SourceAlpha" operator="in" result="effect1_backgroundBlur_124_2"/>
<feBlend mode="normal" in="SourceGraphic" in2="effect1_backgroundBlur_124_2" result="shape"/>
</filter>
<linearGradient id="paint0_linear_124_2" x1="1016.96" y1="191.149" x2="1186.89" y2="91.5041" gradientUnits="userSpaceOnUse">
<stop stop-color="#7C00FF"/>
<stop offset="0.52" stop-color="#FF6700"/>
<stop offset="1" stop-color="#FFD400"/>
</linearGradient>
<linearGradient id="paint1_linear_124_2" x1="991.41" y1="147.569" x2="1161.34" y2="47.9115" gradientUnits="userSpaceOnUse">
<stop stop-color="#7C00FF"/>
<stop offset="0.52" stop-color="#FF6700"/>
<stop offset="1" stop-color="#FFD400"/>
</linearGradient>
<linearGradient id="paint2_linear_124_2" x1="1016.96" y1="191.149" x2="1186.89" y2="91.5041" gradientUnits="userSpaceOnUse">
<stop stop-color="#7C00FF"/>
<stop offset="0.52" stop-color="#FF6700"/>
<stop offset="1" stop-color="#FFD400"/>
</linearGradient>
<linearGradient id="paint3_linear_124_2" x1="991.41" y1="147.569" x2="1161.34" y2="47.9115" gradientUnits="userSpaceOnUse">
<stop stop-color="#7C00FF"/>
<stop offset="0.52" stop-color="#FF6700"/>
<stop offset="1" stop-color="#FFD400"/>
</linearGradient>
<linearGradient id="paint4_linear_124_2" x1="1045.69" y1="178.655" x2="1160.09" y2="92.8428" gradientUnits="userSpaceOnUse">
<stop stop-color="white" stop-opacity="0.2"/>
<stop offset="1" stop-color="white" stop-opacity="0.49"/>
</linearGradient>
<linearGradient id="paint5_linear_124_2" x1="1047.11" y1="62.4668" x2="1156.97" y2="150.574" gradientUnits="userSpaceOnUse">
<stop stop-color="white"/>
<stop offset="1" stop-color="white" stop-opacity="0"/>
</linearGradient>
<clipPath id="clip0_124_2">
<rect width="1365.71" height="239" fill="white"/>
</clipPath>
</defs>
</svg>
